<?xml version="1.0" encoding="iso-8859-1"?>
<!-- Generator: Adobe Illustrator 16.0.0, SVG Export Plug-In . SVG Version: 6.00 Build 0)  -->
<!DOCTYPE svg PUBLIC "-//W3C//DTD SVG 1.1//EN" "http://www.w3.org/Graphics/SVG/1.1/DTD/svg11.dtd">
<svg version="1.1" id="Capa_1" xmlns="http://www.w3.org/2000/svg" xmlns:xlink="http://www.w3.org/1999/xlink" x="0px" y="0px"
	 width="64px" height="64px" viewBox="0 0 64 64" style="enable-background:new 0 0 64 64;" xml:space="preserve">
<g>
	<g>
		<g id="circle_copy">
			<g>
				<path d="M28.974,28.651c-0.767,0.947-1.15,2.265-1.15,3.949c0,2.676,1.018,4.012,3.051,4.012c2.159,0,3.333-1.646,3.521-4.943
					l0.219-4.122c-0.752-0.211-1.569-0.316-2.456-0.316C30.801,27.229,29.74,27.703,28.974,28.651z M32,0C14.327,0,0,14.327,0,32
					s14.327,32,32,32s32-14.327,32-32S49.673,0,32,0z M43.312,34.639c-0.459,1.242-1.105,2.205-1.939,2.891
					c-0.835,0.685-1.794,1.027-2.879,1.027c-0.896,0-1.653-0.274-2.27-0.822c-0.615-0.547-0.979-1.248-1.095-2.102h-0.125
					c-0.418,0.917-1.015,1.633-1.792,2.148c-0.775,0.517-1.697,0.773-2.761,0.773c-1.564,0-2.788-0.539-3.669-1.619
					c-0.881-1.078-1.322-2.545-1.322-4.398c0-2.148,0.615-3.894,1.847-5.236c1.23-1.343,2.847-2.014,4.85-2.014
					c0.709,0,1.513,0.065,2.408,0.197c0.897,0.132,1.705,0.313,2.426,0.545l-0.391,7.424v0.348c0,1.875,0.692,2.812,2.08,2.812
					c0.948,0,1.721-0.565,2.314-1.698c0.595-1.132,0.893-2.604,0.893-4.414c0-1.906-0.387-3.575-1.158-5.008
					c-0.771-1.432-1.869-2.535-3.293-3.31c-1.424-0.773-3.059-1.161-4.903-1.161c-2.326,0-4.35,0.487-6.07,1.462
					c-1.721,0.974-3.035,2.364-3.943,4.17c-0.906,1.806-1.36,3.894-1.36,6.263c0,3.212,0.839,5.683,2.519,7.408
					c1.68,1.728,4.1,2.591,7.259,2.591c2.19,0,4.463-0.453,6.821-1.357v2.101c-2.002,0.885-4.275,1.327-6.821,1.327
					c-3.785,0-6.725-1.051-8.815-3.151s-3.137-5.036-3.137-8.806c0-2.738,0.559-5.176,1.674-7.314
					c1.116-2.137,2.707-3.793,4.771-4.967c2.065-1.175,4.433-1.762,7.104-1.762c2.241,0,4.235,0.477,5.983,1.43
					c1.746,0.953,3.098,2.306,4.051,4.06c0.951,1.751,1.43,3.77,1.43,6.055C44,32.025,43.771,33.396,43.312,34.639z"/>
			</g>
		</g>
	</g>
</g>
<g>
</g>
<g>
</g>
<g>
</g>
<g>
</g>
<g>
</g>
<g>
</g>
<g>
</g>
<g>
</g>
<g>
</g>
<g>
</g>
<g>
</g>
<g>
</g>
<g>
</g>
<g>
</g>
<g>
</g>
</svg>
