<?xml version="1.0" ?><svg data-name="Layer 1" id="Layer_1" viewBox="0 0 512 512" xmlns="http://www.w3.org/2000/svg"><title/><circle cx="256" cy="256" fill="#fefefe" r="206.43"/><path d="M256.05,309.18A54.92,54.92,0,1,1,311,254.26,55,55,0,0,1,256.05,309.18Zm0-94.9a40,40,0,1,0,40,40A40,40,0,0,0,256.05,214.28Z" fill="#2e2e2e"/><path d="M308,366.1H204.89a59.75,59.75,0,0,1-59.68-59.68V203.27a59.74,59.74,0,0,1,59.68-59.68H308a59.75,59.75,0,0,1,59.69,59.68V306.42A59.76,59.76,0,0,1,308,366.1Zm-100-207a47.42,47.42,0,0,0-47.36,47.37v96.74a47.42,47.42,0,0,0,47.36,47.37h96.75a47.42,47.42,0,0,0,47.37-47.37V206.47a47.42,47.42,0,0,0-47.37-47.37Z" fill="#2e2e2e"/><circle cx="317.49" cy="193.86" fill="#2e2e2e" r="13.12"/></svg>