<?xml version="1.0" ?><svg data-name="Layer 1" id="Layer_1" viewBox="0 0 512 512" xmlns="http://www.w3.org/2000/svg"><title/><circle cx="256" cy="256" fill="#fefefe" r="206.43"/><rect fill="#2e2e2e" height="125.27" width="38.75" x="165.75" y="225.43"/><circle cx="185.13" cy="183.1" fill="#2e2e2e" r="20.97"/><path d="M323.49,226.37s-10.77-3.5-27.56-1.12A36.15,36.15,0,0,0,279.1,232a28.19,28.19,0,0,0-9.71,12.83V225.43H230.65V350.7h38.74V282.47c0-10.34,5.53-20.28,14.93-24.6a25.17,25.17,0,0,1,8-2.18s8.83-1.77,16.57,6.94A26.06,26.06,0,0,1,315,280v70.7h38.75V264.18C355.52,232.6,323.49,226.37,323.49,226.37Z" fill="#2e2e2e"/></svg>