<?xml version="1.0" ?><!DOCTYPE svg  PUBLIC '-//W3C//DTD SVG 1.1//EN'  'http://www.w3.org/Graphics/SVG/1.1/DTD/svg11.dtd'><svg enable-background="new 0 0 128 128" id="Слой_1" version="1.1" viewBox="0 0 128 128" xml:space="preserve" xmlns="http://www.w3.org/2000/svg" xmlns:xlink="http://www.w3.org/1999/xlink"><g><g><g><path d="M63.2,90.2H94c11,0,20-9,20-20V37.7c0-11-9-20-20-20H34c-11,0-20,9-20,20v32.5c0,11,9,20,20,20h1.5v20     l23.5-20" fill="#FFFFFF"/></g></g></g><g><g><g><path d="M94,17.7H79c11,0,20,9,20,20v32.5c0,11-9,20-20,20h15c11,0,20-9,20-20V37.7C114,26.7,105,17.7,94,17.7z" fill="#C7D7E2"/></g></g></g><g><g><path d="M35.5,113.3c-0.4,0-0.9-0.1-1.3-0.3c-1.1-0.5-1.7-1.6-1.7-2.7V93.2c-12-0.8-21.5-10.8-21.5-23V37.7    c0-12.7,10.3-23,23-23h60c12.7,0,23,10.3,23,23v32.5c0,12.7-10.3,23-23,23H73.2c-1.7,0-3-1.3-3-3s1.3-3,3-3H94c9.4,0,17-7.6,17-17    V37.7c0-9.4-7.6-17-17-17H34c-9.4,0-17,7.6-17,17v32.5c0,9.4,7.6,17,17,17h1.5c1.7,0,3,1.3,3,3v13.5L57.1,88    c1.3-1.1,3.2-0.9,4.2,0.3c1.1,1.3,0.9,3.2-0.3,4.2l-23.5,20C36.9,113,36.2,113.3,35.5,113.3z" fill="#454B54"/></g></g><g><g><path d="M89,47.8H39c-1.7,0-3-1.3-3-3s1.3-3,3-3h50c1.7,0,3,1.3,3,3S90.7,47.8,89,47.8z" fill="#454B54"/></g></g><g><g><path d="M69,67.8H39c-1.7,0-3-1.3-3-3s1.3-3,3-3h30c1.7,0,3,1.3,3,3S70.7,67.8,69,67.8z" fill="#454B54"/></g></g><g><g><path d="M89,67.8c-1.7,0-3-1.3-3-3s1.3-3,3-3h0c1.7,0,3,1.3,3,3S90.7,67.8,89,67.8z" fill="#454B54"/></g></g></svg>