<?xml version="1.0" ?><svg data-name="Layer 1" id="Layer_1" viewBox="0 0 512 512" xmlns="http://www.w3.org/2000/svg"><title/><circle cx="256" cy="256" fill="#fefefe" r="206.43"/><path d="M344.44,181.3s17.12-4.7,29.2-11.07a41.7,41.7,0,0,1-18.13,24.16s9.4,2,23.83-6c0,0-5.37,13.76-21.81,23.49,0,0,5,66.46-49.34,109.08,0,0-67.79,61.42-154.72,10.74,0,0,34.91,4.7,66.79-20.14,0,0-32.22-.33-42.62-32.22,0,0,11.66.34,20.22-1.17,0,0-36.25-3.78-37-47.07,0,0,12.58,6.46,19.63,6,0,0-32.47-26.6-12.84-61.59,0,0,35.49,44.55,96.16,47.83,0,0-5.09-18.76,8.62-37.2,10.47-14.08,27.6-22,44.93-19.25C325.91,168.17,335.47,172.15,344.44,181.3Z" fill="#2e2e2e"/></svg>