<?xml version="1.0" standalone="no"?><svg xmlns="http://www.w3.org/2000/svg" viewBox="0 0 1440 320"><path fill="#242424" fill-opacity="1" d="M0,288L40,282.7C80,277,160,267,240,229.3C320,192,400,128,480,128C560,128,640,192,720,197.3C800,203,880,149,960,133.3C1040,117,1120,139,1200,122.7C1280,107,1360,53,1400,26.7L1440,0L1440,320L1400,320C1360,320,1280,320,1200,320C1120,320,1040,320,960,320C880,320,800,320,720,320C640,320,560,320,480,320C400,320,320,320,240,320C160,320,80,320,40,320L0,320Z"></path></svg>